<?xml version="1.0" encoding="utf-8"?>
<!-- Generator: Adobe Illustrator 17.0.0, SVG Export Plug-In . SVG Version: 6.00 Build 0)  -->
<!DOCTYPE svg PUBLIC "-//W3C//DTD SVG 1.1//EN" "http://www.w3.org/Graphics/SVG/1.1/DTD/svg11.dtd">
<svg version="1.1" id="Layer_1" xmlns="http://www.w3.org/2000/svg" xmlns:xlink="http://www.w3.org/1999/xlink" x="0px" y="0px"
	 width="500px" height="500px" viewBox="0 0 500 500" enable-background="new 0 0 500 500" xml:space="preserve">
<g>
	<path fill="#FFFFFF" d="M381.366,344.398l-52.782-52.804c39.494-52.778,28.725-127.579-24.052-167.073
		s-127.579-28.725-167.073,24.052s-28.725,127.579,24.052,167.073c42.395,31.725,100.624,31.725,143.02,0l52.804,52.804
		c6.636,6.636,17.394,6.636,24.03,0c6.636-6.636,6.636-17.394,0-24.03L381.366,344.398z M233.461,305.455
		c-46.906,0-84.931-38.025-84.931-84.931s38.025-84.931,84.931-84.931s84.931,38.025,84.931,84.931
		C318.342,267.409,280.347,305.405,233.461,305.455z"/>
</g>
</svg>
