<?xml version="1.0" encoding="utf-8"?>
<!-- Generator: Adobe Illustrator 17.0.0, SVG Export Plug-In . SVG Version: 6.00 Build 0)  -->
<!DOCTYPE svg PUBLIC "-//W3C//DTD SVG 1.1//EN" "http://www.w3.org/Graphics/SVG/1.1/DTD/svg11.dtd">
<svg version="1.1" id="Layer_1" xmlns="http://www.w3.org/2000/svg" xmlns:xlink="http://www.w3.org/1999/xlink" x="0px" y="0px"
	 width="500px" height="500px" viewBox="0 0 500 500" enable-background="new 0 0 500 500" xml:space="preserve">
<g>
	<path fill="#FFFFFF" d="M258.527,191.001c-35.651,0-71.302,0.013-106.953-0.009c-10.027-0.006-17.46-7.393-17.254-17.029
		c0.182-8.494,7.081-15.625,15.575-16.091c0.689-0.038,1.381-0.031,2.071-0.031c71.129-0.001,142.259-0.004,213.388,0.002
		c10.011,0.001,17.439,6.811,17.643,16.123c0.202,9.225-6.984,16.825-16.223,17.004c-5.868,0.114-11.739,0.03-17.609,0.03
		C318.953,191.002,288.74,191.001,258.527,191.001z"/>
	<path fill="#FFFFFF" d="M258.812,240.742c35.651,0,71.302-0.012,106.953,0.008c10.02,0.006,17.456,7.408,17.232,17.047
		c-0.197,8.5-7.088,15.604-15.598,16.073c-0.689,0.038-1.381,0.032-2.071,0.032c-71.129,0.001-142.259,0.004-213.388-0.002
		c-8.72-0.001-15.382-5.003-17.166-12.826c-2.353-10.321,5.204-20.127,15.791-20.299c8.026-0.13,16.055-0.032,24.083-0.032
		C202.703,240.742,230.758,240.742,258.812,240.742z"/>
	<path fill="#FFFFFF" d="M258.482,356.804c-35.651,0-71.302,0.014-106.953-0.009c-10.004-0.007-17.435-7.435-17.207-17.073
		c0.201-8.492,7.118-15.602,15.619-16.047c0.689-0.036,1.381-0.029,2.071-0.029c71.129-0.001,142.259-0.004,213.388,0.002
		c8.723,0.001,15.355,4.99,17.146,12.843c2.352,10.312-5.214,20.104-15.817,20.28c-7.853,0.131-15.71,0.033-23.565,0.033
		C314.937,356.805,286.709,356.805,258.482,356.804z"/>
</g>
</svg>
